<svg xmlns="http://www.w3.org/2000/svg" enable-background="new 0 0 24 24" viewBox="0 0 24 24" id="viber">
  <path fill="#fff" d="m10.918 19.37s-2.356 2.938-3.09 3.703c-.24.248-.503.225-.499-.267 0-.323.019-4.016.019-4.016-4.613-1.322-4.341-6.294-4.291-8.896.05-2.601.526-4.733 1.931-6.168 3.237-3.037 12.374-2.358 14.702-.17 2.936 2.604 1.842 9.998 1.839 9.895-.585 4.874-4.032 5.183-4.667 5.394-.271.089-2.786.736-5.944.525z"></path>
  <path fill="#8e24aa" d="m23.155 13.893c.716-6.027-.344-9.832-2.256-11.553l.001-.002c-3.079-2.93-13.5-3.381-17.199.133-1.659 1.716-2.243 4.232-2.307 7.348-.063 3.117-.14 8.957 5.301 10.541h.005l-.004 2.418s-.037.98.588 1.177c.712.231 1.033-.213 3.267-2.883 3.725.323 6.583-.417 6.909-.524.752-.254 5.007-.817 5.695-6.655zm-12.237 5.477s-2.356 2.938-3.09 3.703c-.24.248-.503.225-.499-.267 0-.323.019-4.016.019-4.016-4.613-1.322-4.341-6.294-4.291-8.896.05-2.601.526-4.733 1.931-6.168 3.237-3.037 12.374-2.358 14.702-.17 2.936 2.604 1.842 9.998 1.839 9.895-.585 4.874-4.032 5.183-4.667 5.394-.271.089-2.786.736-5.944.525z"></path>
  <path fill="#7c1f94" d="m12 .002c-1.759.006-5.98.265-8.299 2.469-1.659 1.716-2.243 4.232-2.307 7.348-.063 3.117-.14 8.957 5.301 10.541h.005l-.004 2.418s-.037.98.588 1.177c.078.025.153.04.225.045h.112c.43-.03.598-.141 2.93-2.928.5.043.985.068 1.449.077v-1.738c-.35-.003-.711-.016-1.082-.041 0 0-2.356 2.938-3.09 3.703-.247.256-.498.212-.499-.253 0-.005 0-.009 0-.014 0-.1.02-4.283.019-4.016-4.02-1.152-4.369-4.849-4.291-8.896.05-2.601.526-4.733 1.931-6.168 1.811-1.7 4.706-1.939 7.012-2.034z"></path>
  <g fill="#8e24aa">
    <path d="m12.222 4.297c-.385 0-.385.6 0 .605 2.987.023 5.447 2.105 5.474 5.924 0 .403.59.398.585-.005h-.001c-.032-4.115-2.718-6.501-6.058-6.524z"></path>
    <path d="M16.151 10.193c-.009.398.58.417.585.014.049-2.269-1.351-4.139-3.978-4.335-.385-.028-.425.577-.041.605 2.279.173 3.48 1.729 3.434 3.716zM15.521 12.774c-.494-.286-.997-.108-1.205.173l-.435.563c-.222.286-.634.248-.634.248-3.014-.797-3.82-3.952-3.82-3.952s-.037-.426.24-.656l.544-.45c.272-.216.444-.736.167-1.247-.703-1.265-1.571-2.251-1.491-2.151-.266-.333-.666-.408-1.082-.183h-.009c-.865.506-1.812 1.453-1.509 2.428.055.1 1.354 4.211 4.495 6.781 1.423 1.171 3.675 2.371 4.631 2.647l.008.014c.942.314 1.858-.67 2.347-1.561v-.007c.217-.431.145-.839-.172-1.106-.561-.547-1.409-1.152-2.075-1.541z"></path>
    <path d="m13.169 8.104c.961.056 1.427.558 1.477 1.589.018.403.603.375.584-.028-.063-1.346-.765-2.096-2.03-2.166-.385-.023-.42.582-.031.605z"></path>
  </g>
  <path fill="#7c1f94" d="M12.222 4.297c-.385 0-.385.6 0 .605 1.57.012 2.994.593 3.996 1.695l.419-.419c-1.103-1.211-2.67-1.869-4.415-1.881zM12.732 5.871c-.361 0-.391.578-.016.606 1.095.083 1.942.485 2.52 1.102l.42-.42c-.671-.718-1.645-1.193-2.899-1.287-.008-.001-.016-.001-.025-.001zM8.272 4.99c-.149 0-.307.042-.467.129h-.009c-.865.506-1.812 1.453-1.509 2.428.053.102 1.133 3.327 3.313 5.669l1.088-1.088c-.952-1.111-1.261-2.322-1.261-2.322s-.037-.426.24-.656l.544-.45c.272-.216.444-.736.167-1.247-.703-1.265-1.571-2.251-1.491-2.151-.164-.204-.378-.312-.615-.312zM13.18 7.498c-.365 0-.392.583-.01.605.491.029.853.174 1.096.447l.423-.423c-.342-.379-.841-.593-1.487-.628-.008 0-.015-.001-.022-.001z"></path>
</svg>
